<svg width="256" height="256" xmlns="http://www.w3.org/2000/svg" fill="none"><path d="M46.39 60.868v28.256c6.72-3.382 13.388-2.97 20.005-3.66V57.54c-7.258 0-13.286.06-20.005 3.33zm58.667 3.125c-6.318-2.166-12.684-4.059-19.1-5.272v27.603c6.414 1.11 12.782 2.898 19.1 4.957zm-19.111 49.94V86.329c-6.465-1.117-12.98-1.545-19.545-.858v27.925c6.566-.792 13.08-.474 19.545.537zm-39.556 3.464v28.256c6.72-3.604 13.388-3.411 20.005-4.322v-27.925c-6.855.537-13.286.496-20.005 3.99zm39.566-3.437v27.604c6.415.898 12.783 2.477 19.1 4.33v-27.289c-6.317-1.956-12.683-3.64-19.1-4.646zm-19.555 27.396v27.924c6.566-1.01 13.08-.904 19.545-.108v-27.605c-6.465-.904-12.98-1.116-19.545-.215zm127.412-12.013c7.445-5.91 11.63-15.412 11.63-25.18 0-15.143-9.776-21.346-30.124-23.265V67.7c-4.327-.212-8.68-.668-13.054-1.31v13.177a189 189 0 0 1-12.317-2.154v-13.28c-4.47-.962-8.961-2.066-13.478-3.258v13.389a623 623 0 0 1-12.72-3.426v26.99c-6.177-2.176-12.404-4.485-18.675-6.53v27.3c6.271 1.942 12.498 4.149 18.675 6.221v26.991c-6.177-1.97-12.404-4.076-18.675-5.914v27.3c6.271 1.736 12.498 3.735 18.675 5.605 4.262.909 8.503 1.788 12.72 2.587v13.39c4.517.82 9.011 1.554 13.478 2.147v-13.28c4.127.581 8.23 1.042 12.317 1.34v13.176c4.375.284 8.727.378 13.054.235v-13.09c22.564-1.177 34.291-18.147 34.291-35.074 0-12.492-6.011-18.553-15.797-20.894zM149.986 99.12c4.114.796 8.206 1.467 12.275 1.98q2.728.342 5.442.583c.349.03.684.066 1.016.106l.248.028q.465.056.91.122c.02 0 .042.006.06.009.327.05.64.103.949.162l.162.032a21 21 0 0 1 .896.19 23 23 0 0 1 .954.247 15 15 0 0 1 2.421.907c3.428 1.648 5.17 4.474 5.17 8.64 0 4.245-1.742 7.265-5.17 8.799-.732.323-1.54.58-2.424.76-.02.003-.036.01-.056.013a15 15 0 0 1-1.791.25l-.162.012c-.309.022-.622.04-.948.047h-.061a27 27 0 0 1-1.154-.006 29 29 0 0 1-1.016-.053 155 155 0 0 1-5.442-.512 186 186 0 0 1-12.276-1.823V99.125zm25.33 64.6q-.395.06-.806.107-.121.011-.241.025l-.61.053-.287.019q-.31.014-.626.024c-.09 0-.18.006-.27.006q-.448.009-.916 0c-3.089-.06-6.188-.233-9.3-.502a184 184 0 0 1-12.274-1.502V140.4c4.114.69 8.206 1.258 12.275 1.664 3.11.308 6.21.524 9.299.626a41 41 0 0 1 1.812.1q.145.011.29.025.31.028.61.06l.24.024q.414.047.807.107c6.224.892 9.47 3.857 9.47 9.903 0 5.992-3.246 9.81-9.47 10.805z" stroke="null" fill="#E36E1B"/></svg>