  <svg width="40" height="40" v-bind="$attrs" viewBox="0 0 60 60" fill="none" xmlns="http://www.w3.org/2000/svg">
    <path d="M30 60C46.5685 60 60 46.5685 60 30C60 13.4315 46.5685 0 30 0C13.4315 0 0 13.4315 0 30C0 46.5685 13.4315 60 30 60Z" fill="#2470FF"/>
    <path d="M22.6527 32.4949C21.7563 30.4236 21.4523 28.4443 22.2876 27.2982C22.9619 26.3731 24.7555 25.1557 32.7239 23.9564C34.5918 23.6757 36.49 23.4423 38.2168 23.2603C38.6946 23.2082 39.0688 22.8283 39.1112 22.3504C39.1457 21.9569 39.1682 21.6843 39.1707 21.6227C39.4648 15.394 38.8394 5.99026 37.6165 5.45561C36.2859 4.87346 16.1518 20.8966 14.3986 22.9792C12.5512 25.1736 15.2054 32.3178 18.5908 38.1145C19.8833 40.3252 23.7937 48.0184 24.1626 53.0008C24.41 56.34 29.0269 54.732 29.2284 51.3901C29.4846 47.1396 24.2106 36.0337 22.6263 32.4771C22.6355 32.4838 22.6458 32.4928 22.655 32.4995L22.6527 32.4949Z" fill="white"/>
    <path d="M32.6463 26.6122C27.7588 27.3422 25.6631 28.0475 24.7904 28.4559C24.3987 28.6413 24.1767 29.0659 24.2543 29.4931C24.4341 30.4727 24.6916 32.2236 26.0112 34.0818C26.1378 34.2601 26.3207 34.3863 26.5311 34.4438C29.669 35.3157 36.8646 36.9966 38.4646 36.7856C40.0601 36.5769 42.3876 29.8384 42.6469 26.6473C42.6947 26.0634 42.2039 25.5746 41.6212 25.6178C39.4304 25.7788 35.9979 26.1118 32.6486 26.611L32.6463 26.6122Z" fill="white"/>
    <path d="M31.7432 37.5455C31.1372 37.4718 30.5484 37.3978 29.9892 37.3257C28.7312 37.2222 27.6611 37.2767 27.079 37.615C27.4686 38.6954 28.0496 40.1901 28.7905 41.7224C29.9759 44.1806 31.2039 46.0002 32.4176 47.116C32.9284 47.477 33.3723 47.6201 33.6855 47.4438C38.7692 44.5649 39.095 41.0699 38.3434 39.0899C38.3434 39.0899 34.9 38.0491 31.7432 37.5455Z" fill="white"/>
  </svg>